<svg xmlns="http://www.w3.org/2000/svg" xmlns:xlink="http://www.w3.org/1999/xlink" width="709pt" height="472pt" viewBox="0.00 0.00 708.65 472.38">
<g id="graph0" class="graph" transform="scale(1 1) rotate(0) translate(4 468.38)">
<title>micro-services</title>
<polygon fill="white" stroke="none" points="-4,4 -4,-468.38 704.65,-468.38 704.65,4 -4,4"/>
<!-- kong -->
<g id="node1" class="node">
<title>kong</title>
<ellipse fill="lightgrey" stroke="black" cx="42.73" cy="-280.6" rx="42.73" ry="58.69"/>
<text text-anchor="start" x="27.73" y="-305.6" font-family="Times,serif" font-size="15.00">kong</text>
<text text-anchor="start" x="20.52" y="-285.1" font-family="Times,serif" font-weight="bold" font-size="10.00">Networks:</text>
<text text-anchor="start" x="34.12" y="-275.1" font-family="Times,serif" font-size="10.00">auth</text>
<text text-anchor="start" x="32.73" y="-265.1" font-family="Times,serif" font-size="10.00">kong</text>
<text text-anchor="start" x="35.24" y="-255.1" font-family="Times,serif" font-size="10.00">otel</text>
<text text-anchor="start" x="30.79" y="-245.1" font-family="Times,serif" font-size="10.00">sound</text>
</g>
<!-- kong&#45;migration -->
<g id="node4" class="node">
<title>kong-migration</title>
<ellipse fill="lightgrey" stroke="black" cx="118.73" cy="-148.43" rx="77.3" ry="37.48"/>
<text text-anchor="start" x="72.07" y="-158.43" font-family="Times,serif" font-size="15.00">kong-migration</text>
<text text-anchor="start" x="96.52" y="-137.93" font-family="Times,serif" font-weight="bold" font-size="10.00">Networks:</text>
<text text-anchor="start" x="108.73" y="-127.93" font-family="Times,serif" font-size="10.00">kong</text>
</g>
<!-- kong&#45;&gt;kong&#45;migration -->
<g id="edge1" class="edge">
<title>kong-&gt;kong-migration</title>
<path fill="none" stroke="black" d="M69.31,-234.07C76.74,-221.34 84.82,-207.52 92.24,-194.8"/>
<polygon fill="black" stroke="black" points="95.25,-196.59 97.27,-186.19 89.21,-193.06 95.25,-196.59"/>
</g>
<!-- kong&#45;setup&#45;service -->
<g id="node2" class="node">
<title>kong-setup-service</title>
<ellipse fill="lightgrey" stroke="black" cx="195.73" cy="-280.6" rx="92.01" ry="37.48"/>
<text text-anchor="start" x="138.67" y="-290.6" font-family="Times,serif" font-size="15.00">kong-setup-service</text>
<text text-anchor="start" x="173.52" y="-270.1" font-family="Times,serif" font-weight="bold" font-size="10.00">Networks:</text>
<text text-anchor="start" x="185.73" y="-260.1" font-family="Times,serif" font-size="10.00">kong</text>
</g>
<!-- kong&#45;setup&#45;service&#45;&gt;kong&#45;migration -->
<g id="edge2" class="edge">
<title>kong-setup-service-&gt;kong-migration</title>
<path fill="none" stroke="black" d="M174.49,-243.68C165.49,-228.48 154.91,-210.59 145.4,-194.51"/>
<polygon fill="black" stroke="black" points="148.52,-192.9 140.41,-186.08 142.49,-196.47 148.52,-192.9"/>
</g>
<!-- auth&#45;service -->
<g id="node3" class="node">
<title>auth-service</title>
<ellipse fill="lightgrey" stroke="black" cx="102.73" cy="-419.83" rx="63.14" ry="44.55"/>
<text text-anchor="start" x="66.09" y="-434.83" font-family="Times,serif" font-size="15.00">auth-service</text>
<text text-anchor="start" x="80.52" y="-414.33" font-family="Times,serif" font-weight="bold" font-size="10.00">Networks:</text>
<text text-anchor="start" x="94.12" y="-404.33" font-family="Times,serif" font-size="10.00">auth</text>
<text text-anchor="start" x="95.24" y="-394.33" font-family="Times,serif" font-size="10.00">otel</text>
</g>
<!-- auth&#45;service&#45;&gt;kong&#45;setup&#45;service -->
<g id="edge3" class="edge">
<title>auth-service-&gt;kong-setup-service</title>
<path fill="none" stroke="black" d="M129.63,-379.14C140.86,-362.57 153.95,-343.26 165.5,-326.2"/>
<polygon fill="black" stroke="black" points="168.18,-328.49 170.9,-318.25 162.39,-324.56 168.18,-328.49"/>
</g>
<!-- postgres -->
<g id="node8" class="node">
<title>postgres</title>
<ellipse fill="lightgrey" stroke="black" cx="118.73" cy="-37.48" rx="46.67" ry="37.48"/>
<text text-anchor="start" x="93.74" y="-47.48" font-family="Times,serif" font-size="15.00">postgres</text>
<text text-anchor="start" x="96.52" y="-26.98" font-family="Times,serif" font-weight="bold" font-size="10.00">Networks:</text>
<text text-anchor="start" x="108.73" y="-16.98" font-family="Times,serif" font-size="10.00">kong</text>
</g>
<!-- kong&#45;migration&#45;&gt;postgres -->
<g id="edge4" class="edge">
<title>kong-migration-&gt;postgres</title>
<path fill="none" stroke="black" d="M118.73,-110.54C118.73,-102.91 118.73,-94.76 118.73,-86.79"/>
<polygon fill="black" stroke="black" points="122.23,-86.84 118.73,-76.84 115.23,-86.84 122.23,-86.84"/>
</g>
<!-- sound&#45;monitor&#45;service -->
<g id="node5" class="node">
<title>sound-monitor-service</title>
<ellipse fill="lightgrey" stroke="black" cx="290.73" cy="-419.83" rx="107.34" ry="44.55"/>
<text text-anchor="start" x="222.83" y="-434.83" font-family="Times,serif" font-size="15.00">sound-monitor-service</text>
<text text-anchor="start" x="268.52" y="-414.33" font-family="Times,serif" font-weight="bold" font-size="10.00">Networks:</text>
<text text-anchor="start" x="283.24" y="-404.33" font-family="Times,serif" font-size="10.00">otel</text>
<text text-anchor="start" x="278.79" y="-394.33" font-family="Times,serif" font-size="10.00">sound</text>
</g>
<!-- sound&#45;monitor&#45;service&#45;&gt;kong&#45;setup&#45;service -->
<g id="edge5" class="edge">
<title>sound-monitor-service-&gt;kong-setup-service</title>
<path fill="none" stroke="black" d="M261.45,-376.54C250.43,-360.61 237.85,-342.44 226.68,-326.3"/>
<polygon fill="black" stroke="black" points="229.71,-324.53 221.14,-318.3 223.96,-328.52 229.71,-324.53"/>
</g>
<!-- otel&#45;collector -->
<g id="node6" class="node">
<title>otel-collector</title>
<ellipse fill="lightgrey" stroke="black" cx="484.73" cy="-419.83" rx="67.85" ry="44.55"/>
<text text-anchor="start" x="444.75" y="-434.83" font-family="Times,serif" font-size="15.00">otel-collector</text>
<text text-anchor="start" x="462.52" y="-414.33" font-family="Times,serif" font-weight="bold" font-size="10.00">Networks:</text>
<text text-anchor="start" x="477.79" y="-404.33" font-family="Times,serif" font-size="10.00">obs</text>
<text text-anchor="start" x="477.24" y="-394.33" font-family="Times,serif" font-size="10.00">otel</text>
</g>
<!-- obs&#45;setup&#45;service -->
<g id="node9" class="node">
<title>obs-setup-service</title>
<ellipse fill="lightgrey" stroke="black" cx="484.73" cy="-280.6" rx="85.53" ry="37.48"/>
<text text-anchor="start" x="432.25" y="-290.6" font-family="Times,serif" font-size="15.00">obs-setup-service</text>
<text text-anchor="start" x="462.52" y="-270.1" font-family="Times,serif" font-weight="bold" font-size="10.00">Networks:</text>
<text text-anchor="start" x="477.79" y="-260.1" font-family="Times,serif" font-size="10.00">obs</text>
</g>
<!-- otel&#45;collector&#45;&gt;obs&#45;setup&#45;service -->
<g id="edge6" class="edge">
<title>otel-collector-&gt;obs-setup-service</title>
<path fill="none" stroke="black" d="M484.73,-375.03C484.73,-360.67 484.73,-344.64 484.73,-329.96"/>
<polygon fill="black" stroke="black" points="488.23,-330.05 484.73,-320.05 481.23,-330.05 488.23,-330.05"/>
</g>
<!-- openobserve -->
<g id="node7" class="node">
<title>openobserve</title>
<ellipse fill="lightgrey" stroke="black" cx="635.73" cy="-419.83" rx="64.92" ry="44.55"/>
<text text-anchor="start" x="597.83" y="-434.83" font-family="Times,serif" font-size="15.00">openobserve</text>
<text text-anchor="start" x="613.52" y="-414.33" font-family="Times,serif" font-weight="bold" font-size="10.00">Networks:</text>
<text text-anchor="start" x="628.79" y="-404.33" font-family="Times,serif" font-size="10.00">obs</text>
<text text-anchor="start" x="628.24" y="-394.33" font-family="Times,serif" font-size="10.00">otel</text>
</g>
</g>
</svg>